<mxfile host="app.diagrams.net" modified="2023-12-23T09:56:38.919Z" agent="Mozilla/5.0 (Windows NT 10.0; Win64; x64) AppleWebKit/537.36 (KHTML, like Gecko) Chrome/120.0.0.0 Safari/537.36" etag="ODSQPtmupLzlLKIlSFKx" version="22.1.11" type="device">
  <diagram name="Page-1" id="I36qI1W7VargRaHuIeCb">
    <mxGraphModel dx="1434" dy="784" grid="1" gridSize="10" guides="1" tooltips="1" connect="1" arrows="1" fold="1" page="1" pageScale="1" pageWidth="850" pageHeight="1100" math="0" shadow="0">
      <root>
        <mxCell id="0" />
        <mxCell id="1" parent="0" />
        <mxCell id="PuKNq-jDUb0KTCSH3x29-1" value="" style="whiteSpace=wrap;html=1;aspect=fixed;" vertex="1" parent="1">
          <mxGeometry x="110" y="90" width="690" height="690" as="geometry" />
        </mxCell>
        <mxCell id="PuKNq-jDUb0KTCSH3x29-2" value="" style="whiteSpace=wrap;html=1;aspect=fixed;" vertex="1" parent="1">
          <mxGeometry x="330" y="140" width="440" height="440" as="geometry" />
        </mxCell>
        <mxCell id="PuKNq-jDUb0KTCSH3x29-4" value="" style="rounded=0;whiteSpace=wrap;html=1;" vertex="1" parent="1">
          <mxGeometry x="130" y="140" width="170" height="440" as="geometry" />
        </mxCell>
        <mxCell id="PuKNq-jDUb0KTCSH3x29-5" value="Create new note" style="rounded=0;whiteSpace=wrap;html=1;" vertex="1" parent="1">
          <mxGeometry x="130" y="600" width="120" height="30" as="geometry" />
        </mxCell>
        <mxCell id="PuKNq-jDUb0KTCSH3x29-6" value="Edit Note" style="rounded=0;whiteSpace=wrap;html=1;" vertex="1" parent="1">
          <mxGeometry x="130" y="640" width="120" height="30" as="geometry" />
        </mxCell>
        <mxCell id="PuKNq-jDUb0KTCSH3x29-7" value="Save&amp;nbsp;" style="rounded=0;whiteSpace=wrap;html=1;" vertex="1" parent="1">
          <mxGeometry x="330" y="600" width="90" height="30" as="geometry" />
        </mxCell>
        <mxCell id="PuKNq-jDUb0KTCSH3x29-8" value="Delete" style="rounded=0;whiteSpace=wrap;html=1;" vertex="1" parent="1">
          <mxGeometry x="660" y="600" width="120" height="30" as="geometry" />
        </mxCell>
      </root>
    </mxGraphModel>
  </diagram>
</mxfile>
